<?xml version="1.0" standalone="no"?>
<!DOCTYPE svg PUBLIC "-//W3C//DTD SVG 20010904//EN"
 "http://www.w3.org/TR/2001/REC-SVG-20010904/DTD/svg10.dtd">
<svg version="1.0" xmlns="http://www.w3.org/2000/svg"
 width="300.000000pt" height="300.000000pt" viewBox="0 0 300.000000 300.000000"
 preserveAspectRatio="xMidYMid meet">
<metadata>
Created by potrace 1.14, written by Peter Selinger 2001-2017
</metadata>
<g transform="translate(0.000000,300.000000) scale(0.100000,-0.100000)"
fill="#000000" stroke="none">
<path d="M1345 2993 c-28 -4 -156 -27 -201 -37 -102 -22 -267 -88 -389 -155
-39 -21 -146 -91 -165 -108 -8 -7 -35 -30 -59 -50 -70 -59 -168 -162 -217
-228 -25 -33 -50 -67 -57 -76 -76 -99 -199 -389 -222 -519 -6 -38 -10 -57 -21
-110 -4 -19 -8 -111 -8 -205 0 -146 5 -203 28 -320 12 -61 54 -195 81 -260 36
-87 125 -247 167 -300 176 -226 329 -354 553 -467 58 -29 182 -80 192 -79 2 0
22 -7 45 -15 24 -8 54 -17 68 -20 14 -2 59 -11 100 -20 120 -27 415 -24 550 5
147 31 330 95 400 140 14 9 43 25 65 36 22 11 42 22 45 25 3 3 25 18 50 35 90
59 225 183 313 287 50 59 137 196 181 286 147 295 189 631 122 981 -4 19 -9
37 -11 41 -2 3 -6 17 -9 31 -28 151 -165 416 -295 569 -101 119 -193 202 -316
283 -162 108 -357 191 -518 223 -12 2 -47 9 -77 15 -54 10 -336 19 -395 12z"/>
</g>
</svg>
